<svg width="50" height="50" viewBox="0 0 50 50" fill="none" xmlns="http://www.w3.org/2000/svg">
<g id="ph:calendar-light">
<path id="Vector" d="M40.625 6.64062H35.5469V4.6875C35.5469 4.3767 35.4234 4.07863 35.2036 3.85886C34.9839 3.63909 34.6858 3.51562 34.375 3.51562C34.0642 3.51562 33.7661 3.63909 33.5464 3.85886C33.3266 4.07863 33.2031 4.3767 33.2031 4.6875V6.64062H16.7969V4.6875C16.7969 4.3767 16.6734 4.07863 16.4536 3.85886C16.2339 3.63909 15.9358 3.51562 15.625 3.51562C15.3142 3.51562 15.0161 3.63909 14.7964 3.85886C14.5766 4.07863 14.4531 4.3767 14.4531 4.6875V6.64062H9.375C8.6498 6.64062 7.9543 6.92871 7.44151 7.4415C6.92871 7.9543 6.64062 8.6498 6.64062 9.375V40.625C6.64062 41.3502 6.92871 42.0457 7.44151 42.5585C7.9543 43.0713 8.6498 43.3594 9.375 43.3594H40.625C41.3502 43.3594 42.0457 43.0713 42.5585 42.5585C43.0713 42.0457 43.3594 41.3502 43.3594 40.625V9.375C43.3594 8.6498 43.0713 7.9543 42.5585 7.4415C42.0457 6.92871 41.3502 6.64062 40.625 6.64062ZM9.375 8.98438H14.4531V10.9375C14.4531 11.2483 14.5766 11.5464 14.7964 11.7661C15.0161 11.9859 15.3142 12.1094 15.625 12.1094C15.9358 12.1094 16.2339 11.9859 16.4536 11.7661C16.6734 11.5464 16.7969 11.2483 16.7969 10.9375V8.98438H33.2031V10.9375C33.2031 11.2483 33.3266 11.5464 33.5464 11.7661C33.7661 11.9859 34.0642 12.1094 34.375 12.1094C34.6858 12.1094 34.9839 11.9859 35.2036 11.7661C35.4234 11.5464 35.5469 11.2483 35.5469 10.9375V8.98438H40.625C40.7286 8.98438 40.828 9.02553 40.9012 9.09879C40.9745 9.17204 41.0156 9.2714 41.0156 9.375V16.0156H8.98438V9.375C8.98438 9.2714 9.02553 9.17204 9.09879 9.09879C9.17204 9.02553 9.2714 8.98438 9.375 8.98438ZM40.625 41.0156H9.375C9.2714 41.0156 9.17204 40.9745 9.09879 40.9012C9.02553 40.828 8.98438 40.7286 8.98438 40.625V18.3594H41.0156V40.625C41.0156 40.7286 40.9745 40.828 40.9012 40.9012C40.828 40.9745 40.7286 41.0156 40.625 41.0156ZM21.4844 23.4375V35.9375C21.4844 36.2483 21.3609 36.5464 21.1411 36.7661C20.9214 36.9859 20.6233 37.1094 20.3125 37.1094C20.0017 37.1094 19.7036 36.9859 19.4839 36.7661C19.2641 36.5464 19.1406 36.2483 19.1406 35.9375V25.334L17.7109 26.0488C17.5732 26.1176 17.4233 26.1585 17.2697 26.1693C17.1162 26.1801 16.962 26.1605 16.816 26.1118C16.67 26.063 16.535 25.9859 16.4188 25.885C16.3026 25.784 16.2074 25.6612 16.1387 25.5234C16.0699 25.3857 16.029 25.2358 16.0182 25.0822C16.0074 24.9287 16.027 24.7745 16.0757 24.6285C16.1245 24.4825 16.2016 24.3475 16.3025 24.2313C16.4035 24.1151 16.5263 24.0199 16.6641 23.9512L19.7891 22.3887C19.9678 22.2995 20.1663 22.2574 20.3658 22.2665C20.5653 22.2756 20.7592 22.3355 20.929 22.4406C21.0989 22.5457 21.2391 22.6924 21.3363 22.8669C21.4334 23.0414 21.4844 23.2378 21.4844 23.4375ZM33.1191 29.1504L28.9062 34.7656H32.8125C33.1233 34.7656 33.4214 34.8891 33.6411 35.1089C33.8609 35.3286 33.9844 35.6267 33.9844 35.9375C33.9844 36.2483 33.8609 36.5464 33.6411 36.7661C33.4214 36.9859 33.1233 37.1094 32.8125 37.1094H26.5625C26.3449 37.1094 26.1315 37.0488 25.9464 36.9344C25.7613 36.8199 25.6117 36.6562 25.5143 36.4616C25.417 36.2669 25.3758 36.049 25.3954 35.8323C25.4149 35.6155 25.4944 35.4085 25.625 35.2344L31.25 27.7344C31.412 27.5215 31.5285 27.2777 31.5924 27.018C31.6563 26.7583 31.6661 26.4882 31.6214 26.2245C31.5766 25.9609 31.4781 25.7092 31.3321 25.4851C31.1861 25.261 30.9956 25.0694 30.7724 24.9219C30.5493 24.7745 30.2982 24.6745 30.0348 24.628C29.7714 24.5816 29.5013 24.5898 29.2412 24.652C28.9811 24.7143 28.7365 24.8293 28.5227 24.99C28.3088 25.1506 28.1303 25.3535 27.998 25.5859C27.9282 25.7316 27.8289 25.8613 27.7065 25.9668C27.5841 26.0723 27.4412 26.1514 27.2867 26.199C27.1323 26.2466 26.9697 26.2618 26.8091 26.2435C26.6486 26.2253 26.4935 26.174 26.3537 26.093C26.2139 26.0119 26.0924 25.9028 25.9967 25.7726C25.9011 25.6423 25.8335 25.4937 25.798 25.336C25.7626 25.1783 25.7602 25.015 25.7909 24.8564C25.8216 24.6977 25.8848 24.5471 25.9766 24.4141C26.2711 23.9085 26.6657 23.4683 27.1364 23.1207C27.607 22.773 28.1437 22.5251 28.7135 22.3922C29.2834 22.2593 29.8743 22.2442 30.4502 22.3478C31.0261 22.4514 31.5748 22.6715 32.0626 22.9947C32.5504 23.3178 32.967 23.7372 33.287 24.2271C33.6069 24.717 33.8235 25.2671 33.9233 25.8436C34.0232 26.4201 34.0042 27.011 33.8676 27.58C33.731 28.1489 33.4796 28.684 33.1289 29.1523L33.1191 29.1504Z" fill="black"/>
</g>
</svg>
