<svg width="40" height="38" viewBox="0 0 40 38" fill="none" xmlns="http://www.w3.org/2000/svg">
<path id="Vector" d="M39.4294 24.5315L32.1569 20.5415V16.8491C32.1573 16.6599 32.1032 16.4739 31.9999 16.3099C31.8966 16.1459 31.7479 16.0098 31.5686 15.9152L21.1765 10.4894V6.45283H24.7059C25.0179 6.45283 25.3171 6.33952 25.5378 6.13783C25.7584 5.93614 25.8824 5.66259 25.8824 5.37736C25.8824 5.09213 25.7584 4.81857 25.5378 4.61688C25.3171 4.41519 25.0179 4.30189 24.7059 4.30189H21.1765V1.07547C21.1765 0.790239 21.0525 0.516688 20.8319 0.314998C20.6113 0.113308 20.312 0 20 0C19.688 0 19.3887 0.113308 19.1681 0.314998C18.9475 0.516688 18.8235 0.790239 18.8235 1.07547V4.30189H15.2941C14.9821 4.30189 14.6829 4.41519 14.4622 4.61688C14.2416 4.81857 14.1176 5.09213 14.1176 5.37736C14.1176 5.66259 14.2416 5.93614 14.4622 6.13783C14.6829 6.33952 14.9821 6.45283 15.2941 6.45283H18.8235V10.4894L8.43137 15.9152C8.25213 16.0098 8.10335 16.1459 8.00007 16.3099C7.89679 16.4739 7.84266 16.6599 7.84314 16.8491V20.5415L0.570588 24.5315C0.396632 24.627 0.252668 24.7621 0.152687 24.9235C0.0527055 25.085 0.000106257 25.2673 0 25.4528V36.9245C0 37.2098 0.123949 37.4833 0.34458 37.685C0.565211 37.8867 0.864451 38 1.17647 38H16.8627C17.1748 38 17.474 37.8867 17.6946 37.685C17.9153 37.4833 18.0392 37.2098 18.0392 36.9245V28.3208C18.0392 27.8454 18.2458 27.3894 18.6135 27.0533C18.9812 26.7171 19.48 26.5283 20 26.5283C20.52 26.5283 21.0188 26.7171 21.3865 27.0533C21.7542 27.3894 21.9608 27.8454 21.9608 28.3208V36.9245C21.9608 37.2098 22.0847 37.4833 22.3054 37.685C22.526 37.8867 22.8252 38 23.1373 38H38.8235C39.1355 38 39.4348 37.8867 39.6554 37.685C39.8761 37.4833 40 37.2098 40 36.9245V25.4528C39.9999 25.2673 39.9473 25.085 39.8473 24.9235C39.7473 24.7621 39.6034 24.627 39.4294 24.5315ZM2.35294 26.0623L7.84314 23.0509V35.8491H2.35294V26.0623ZM20 24.3774C18.8559 24.3774 17.7587 24.7928 16.9497 25.5324C16.1408 26.2719 15.6863 27.2749 15.6863 28.3208V35.8491H10.1961V17.4728L20 12.3518L29.8039 17.4728V35.8491H24.3137V28.3208C24.3137 27.2749 23.8592 26.2719 23.0503 25.5324C22.2413 24.7928 21.1441 24.3774 20 24.3774ZM37.6471 35.8491H32.1569V23.0509L37.6471 26.0623V35.8491Z" fill="black"/>
</svg>
