<svg width="40" height="42" viewBox="0 0 40 42" fill="none" xmlns="http://www.w3.org/2000/svg">
<g id="icons8:dining-room">
<path id="Vector" d="M30.6232 8.95686L24.5214 15.2292L23.966 15.8001L23.4295 15.2114C23.0727 14.82 22.8456 14.3371 22.8569 13.8007C22.8682 13.2658 23.1142 12.7908 23.4849 12.4081L23.4845 12.4085L30.6232 8.95686ZM30.6232 8.95686L31.3399 9.6987L25.2405 16.0472L24.7241 16.5846L25.2583 17.1044C25.6361 17.4719 26.1148 17.719 26.6594 17.7064C27.2016 17.6939 27.6709 17.4271 28.0392 17.0455L30.6232 8.95686ZM28.7219 6.98985L23.4852 12.4078L29.2258 7.51108L28.7219 6.98985ZM28.7219 6.98985L28.0057 6.24899M28.7219 6.98985L28.0057 6.24899M28.0057 6.24899L22.7645 11.6328C22.7642 11.6332 22.7638 11.6335 22.7635 11.6339C21.6055 12.8339 21.6052 14.8447 22.7649 16.0475L23.2724 16.5738L22.7592 17.0946L20.5342 19.3521L19.9949 19.8993L19.4608 19.3469L17.8608 17.6919L8.49175 8.00078L8.12466 7.63795L7.75927 7.99857C6.83721 8.96238 6.31567 10.2688 6.31567 11.6354C6.31567 13.0049 6.83939 14.3139 7.76506 15.2783C7.76537 15.2786 7.76568 15.279 7.76598 15.2793L15.6167 23.3972L16.1208 23.9185L15.6168 24.4399L6.3952 33.9785L7.14928 34.7601L16.3345 25.2567L16.8664 24.7064L17.4058 25.2493L18.8908 26.744L18.8981 26.7512L18.898 26.7513L19.2447 27.1099L19.5661 26.7629L19.5714 26.7572L19.5768 26.7516L21.8018 24.4475L22.341 23.8892L22.8805 24.4472L32.85 34.7595L33.6059 33.9776L22.7043 22.7419L22.6971 22.7345L22.6971 22.7345L21.2509 21.2023L20.7633 20.6857L21.2527 20.1708L23.4402 17.8693L23.6619 17.636H23.9838H24.0238H24.3419L24.563 17.8647L24.5934 17.8962C25.7405 19.0165 27.5582 19.0221 28.6815 17.9009L28.7655 17.7844L28.7971 17.7406L28.8346 17.7018L33.9556 12.4047L33.2412 11.6658L28.0399 17.0448L28.0057 6.24899ZM9.01415 10.1068L9.01294 10.1056L8.17125 9.23514L7.76686 10.3764C7.30357 11.6839 7.29286 13.2283 8.48467 14.4583C8.48488 14.4585 8.48508 14.4587 8.48528 14.4589L18.7182 25.0475L19.2572 25.6052L19.7965 25.0479L21.1265 23.6734L21.6311 23.152L21.1266 22.6305L9.01419 10.1068L9.01415 10.1068Z" stroke="black" stroke-width="1.5"/>
</g>
</svg>
