<svg width="43" height="43" viewBox="0 0 43 43" fill="none" xmlns="http://www.w3.org/2000/svg">
<path d="M21.5 0.334961C9.8125 0.334961 0.25 9.87621 0.25 21.6275C0.25 32.2525 8.0275 41.0712 18.185 42.665V27.79H12.7875V21.6275H18.185V16.9312C18.185 11.5975 21.3512 8.66496 26.2175 8.66496C28.5337 8.66496 30.9562 9.06871 30.9562 9.06871V14.3175H28.2787C25.6437 14.3175 24.815 15.9537 24.815 17.6325V21.6275H30.7225L29.7662 27.79H24.815V42.665C29.8224 41.8741 34.3822 39.3192 37.6711 35.4613C40.96 31.6035 42.7614 26.697 42.75 21.6275C42.75 9.87621 33.1875 0.334961 21.5 0.334961Z" fill="#1F190A" fill-opacity="0.5"/>
</svg>
