<svg width="43" height="43" viewBox="0 0 43 43" fill="none" xmlns="http://www.w3.org/2000/svg">
<path d="M12.575 0.25H30.425C37.225 0.25 42.75 5.775 42.75 12.575V30.425C42.75 33.6938 41.4515 36.8287 39.1401 39.1401C36.8287 41.4515 33.6938 42.75 30.425 42.75H12.575C5.775 42.75 0.25 37.225 0.25 30.425V12.575C0.25 9.30621 1.54852 6.1713 3.85991 3.85991C6.1713 1.54852 9.30621 0.25 12.575 0.25ZM12.15 4.5C10.1211 4.5 8.17529 5.30598 6.74063 6.74063C5.30598 8.17529 4.5 10.1211 4.5 12.15V30.85C4.5 35.0788 7.92125 38.5 12.15 38.5H30.85C32.8789 38.5 34.8247 37.694 36.2594 36.2594C37.694 34.8247 38.5 32.8789 38.5 30.85V12.15C38.5 7.92125 35.0788 4.5 30.85 4.5H12.15ZM32.6562 7.6875C33.3607 7.6875 34.0364 7.96735 34.5345 8.4655C35.0326 8.96364 35.3125 9.63927 35.3125 10.3438C35.3125 11.0482 35.0326 11.7239 34.5345 12.222C34.0364 12.7201 33.3607 13 32.6562 13C31.9518 13 31.2761 12.7201 30.778 12.222C30.2799 11.7239 30 11.0482 30 10.3438C30 9.63927 30.2799 8.96364 30.778 8.4655C31.2761 7.96735 31.9518 7.6875 32.6562 7.6875ZM21.5 10.875C24.3179 10.875 27.0204 11.9944 29.013 13.987C31.0056 15.9796 32.125 18.6821 32.125 21.5C32.125 24.3179 31.0056 27.0204 29.013 29.013C27.0204 31.0056 24.3179 32.125 21.5 32.125C18.6821 32.125 15.9796 31.0056 13.987 29.013C11.9944 27.0204 10.875 24.3179 10.875 21.5C10.875 18.6821 11.9944 15.9796 13.987 13.987C15.9796 11.9944 18.6821 10.875 21.5 10.875ZM21.5 15.125C19.8092 15.125 18.1877 15.7966 16.9922 16.9922C15.7966 18.1877 15.125 19.8092 15.125 21.5C15.125 23.1908 15.7966 24.8123 16.9922 26.0078C18.1877 27.2034 19.8092 27.875 21.5 27.875C23.1908 27.875 24.8123 27.2034 26.0078 26.0078C27.2034 24.8123 27.875 23.1908 27.875 21.5C27.875 19.8092 27.2034 18.1877 26.0078 16.9922C24.8123 15.7966 23.1908 15.125 21.5 15.125Z" fill="#1F190A" fill-opacity="0.5"/>
</svg>
