<svg width="566" height="137" viewBox="0 0 566 137" fill="none" xmlns="http://www.w3.org/2000/svg">
<path d="M38.9639 83.45L37.7639 47.6L24.2639 43.85C24.2639 46.05 24.2639 48.25 24.2639 50.45C23.9639 52.35 23.7139 54.45 23.5139 56.75C23.4139 58.95 23.3139 61 23.2139 62.9C23.2139 64.8 23.2139 66.8 23.2139 68.9C23.2139 70.9 23.2139 72.75 23.2139 74.45V80.45L24.7139 83.75L38.9639 83.45ZM26.0639 22.85L40.6139 23H46.0139L48.2639 30.05L53.2139 78.5L58.1639 134.6L43.1639 134.15L40.9139 133.25L39.5639 99.65L24.2639 100.55L26.0639 133.7H22.0139H4.91387L0.563867 133.25L2.36387 66.05L7.16387 24.5L26.0639 22.85ZM74.8514 43.85L76.6514 54.65V66.5H80.7014L91.6514 66.05L96.6014 64.25C96.6014 63.65 96.6514 62.9 96.7514 62C96.8514 61.1 96.9514 60.2 97.0514 59.3C97.1514 58.3 97.2014 57.4 97.2014 56.6C97.3014 55.8 97.3514 55.2 97.3514 54.8C97.3514 54.4 97.2514 53.85 97.0514 53.15C96.9514 52.35 96.8014 51.55 96.6014 50.75C96.4014 49.85 96.2014 49.05 96.0014 48.35C95.9014 47.55 95.8014 46.95 95.7014 46.55L92.1014 42.65L85.2014 41.45H75.7514L74.8514 43.85ZM80.2514 23.3C82.0514 23.3 83.8514 23.3 85.6514 23.3C87.5514 23.3 89.3014 23.3 90.9014 23.3C92.5014 23.3 93.8514 23.35 94.9514 23.45C96.1514 23.45 97.0014 23.5 97.5014 23.6C98.3014 23.8 99.4514 24 100.951 24.2C102.551 24.4 104.051 24.6 105.451 24.8C107.151 25.1 108.901 25.35 110.701 25.55L116.851 27.5L119.551 35.15L120.301 50.75C120.301 50.85 120.201 51.5 120.001 52.7C119.801 53.8 119.601 55.05 119.401 56.45C119.101 58.15 118.851 60.05 118.651 62.15L118.351 63.8L117.901 65.45L116.251 69.2L113.701 74.45L111.001 75.65L116.851 80.3L119.401 88.4V100.1L118.651 135.2H112.051L97.5014 132.95L96.4514 103.1L95.5514 89.3L93.7514 86.9L89.5514 84.8L86.2514 84.05V93.05V119.3L86.8514 133.25H76.6514C76.1514 133.25 75.5014 133.3 74.7014 133.4C73.9014 133.4 73.0514 133.45 72.1514 133.55C71.0514 133.65 69.9514 133.7 68.8514 133.7L64.0514 132.8V110.15L62.8514 95.15C63.0514 92.15 63.3014 89.35 63.6014 86.75C63.8014 84.55 64.0014 82.4 64.2014 80.3C64.4014 78.2 64.5014 76.75 64.5014 75.95V42.95L63.1514 23.6C65.1514 23.5 67.1014 23.45 69.0014 23.45C70.7014 23.45 72.5014 23.45 74.4014 23.45C76.4014 23.45 78.3514 23.4 80.2514 23.3ZM138.865 43.85L140.665 54.65V66.5H144.715L155.665 66.05L160.615 64.25C160.615 63.65 160.665 62.9 160.765 62C160.865 61.1 160.965 60.2 161.065 59.3C161.165 58.3 161.215 57.4 161.215 56.6C161.315 55.8 161.365 55.2 161.365 54.8C161.365 54.4 161.265 53.85 161.065 53.15C160.965 52.35 160.815 51.55 160.615 50.75C160.415 49.85 160.215 49.05 160.015 48.35C159.915 47.55 159.815 46.95 159.715 46.55L156.115 42.65L149.215 41.45H139.765L138.865 43.85ZM144.265 23.3C146.065 23.3 147.865 23.3 149.665 23.3C151.565 23.3 153.315 23.3 154.915 23.3C156.515 23.3 157.865 23.35 158.965 23.45C160.165 23.45 161.015 23.5 161.515 23.6C162.315 23.8 163.465 24 164.965 24.2C166.565 24.4 168.065 24.6 169.465 24.8C171.165 25.1 172.915 25.35 174.715 25.55L180.865 27.5L183.565 35.15L184.315 50.75C184.315 50.85 184.215 51.5 184.015 52.7C183.815 53.8 183.615 55.05 183.415 56.45C183.115 58.15 182.865 60.05 182.665 62.15L182.365 63.8L181.915 65.45L180.265 69.2L177.715 74.45L175.015 75.65L180.865 80.3L183.415 88.4V100.1L182.665 135.2H176.065L161.515 132.95L160.465 103.1L159.565 89.3L157.765 86.9L153.565 84.8L150.265 84.05V93.05V119.3L150.865 133.25H140.665C140.165 133.25 139.515 133.3 138.715 133.4C137.915 133.4 137.065 133.45 136.165 133.55C135.065 133.65 133.965 133.7 132.865 133.7L128.065 132.8V110.15L126.865 95.15C127.065 92.15 127.315 89.35 127.615 86.75C127.815 84.55 128.015 82.4 128.215 80.3C128.415 78.2 128.515 76.75 128.515 75.95V42.95L127.165 23.6C129.165 23.5 131.115 23.45 133.015 23.45C134.715 23.45 136.515 23.45 138.415 23.45C140.415 23.45 142.365 23.4 144.265 23.3ZM199.129 23.3L234.979 23.15L241.729 23.6L242.179 38.15L241.729 51.5L226.729 51.05L212.779 50.45L213.229 58.7L212.779 66.65L237.829 66.05L237.679 75.65L236.629 78.65L213.829 79.85L212.029 80.3L212.179 105.95V112.25L228.529 113H240.229L239.929 134.6L221.479 133.85L192.829 134.6L190.879 111.05L192.679 69.95L191.029 32.9L191.779 23.15L199.129 23.3ZM326.782 0.799989L322.132 8.45L316.132 18.8L315.082 19.25L304.582 18.8L308.182 5.29999L310.282 0.949996L322.132 0.349995L326.782 0.799989ZM286.432 81.35L287.032 75.8L286.732 70.25L287.482 37.1L288.832 24.2L337.582 25.1L338.332 54.35H306.382L305.782 73.1L330.232 72.65V74.3L330.982 87.05L308.182 87.5L308.932 109.7L339.382 111.2V134.3L286.732 133.4L286.432 81.35ZM352.18 23.9L366.28 21.8L395.83 23.9L399.88 27.95L403.63 33.95L404.68 60.05L382.63 62.15L381.88 36.05L381.28 33.5L374.23 32.75L367.93 39.05L369.13 107L373.18 108.95L395.38 110V100.1L372.58 100.4L373.18 92.9L374.68 72.95L399.88 71.3L404.68 72.05L404.83 106.25L404.23 133.25L379.18 136.1L359.08 134.3L349.63 128L347.53 121.1L346.93 38.75L347.83 27.95L352.18 23.9ZM415.192 23.9L427.342 23.15L426.442 113.15L431.992 116.45L436.942 117.65L440.392 115.85L442.642 98.6L442.192 53.15L443.842 23.9H470.092L468.142 117.65L466.342 125.3L463.642 134L436.492 133.7L421.192 129.95L414.442 119.9L415.192 23.9ZM515.038 83.45L513.838 47.6L500.338 43.85C500.338 46.05 500.338 48.25 500.338 50.45C500.038 52.35 499.788 54.45 499.588 56.75C499.488 58.95 499.388 61 499.288 62.9C499.288 64.8 499.288 66.8 499.288 68.9C499.288 70.9 499.288 72.75 499.288 74.45V80.45L500.788 83.75L515.038 83.45ZM502.138 22.85L516.688 23H522.088L524.338 30.05L529.288 78.5L534.238 134.6L519.238 134.15L516.988 133.25L515.638 99.65L500.338 100.55L502.138 133.7H498.088H480.988L476.638 133.25L478.438 66.05L483.238 24.5L502.138 22.85ZM541.926 24.05L563.976 23L565.476 28.4L565.776 69.05L561.876 106.7L543.126 106.1L542.376 85.4L540.726 46.85L541.926 24.05ZM541.926 134.75L540.876 129.2V119.6L541.176 114.65L563.976 114.2L565.776 123.5L565.476 133.55L563.976 134.9L541.926 134.75Z" fill="#F5A42E"/>
</svg>
