<svg width="652" height="286" viewBox="0 0 652 286" fill="none" xmlns="http://www.w3.org/2000/svg">
<path d="M79.1504 49.7L79.0004 50.3C79.0004 50.3 78.9504 50.75 78.8504 51.65C78.8504 52.45 78.8004 53.55 78.7004 54.95C78.6004 56.25 78.5004 57.75 78.4004 59.45C78.4004 61.15 78.3504 62.9 78.2504 64.7C77.9504 68.9 77.7004 73.65 77.5004 78.95L71.9504 88.55L57.4004 93.35L46.1504 93.95L46.6004 119.45L45.7004 132.35L37.0004 133.55C36.5004 133.55 35.8504 133.6 35.0504 133.7C34.2504 133.7 33.4004 133.75 32.5004 133.85C31.4004 133.95 30.3004 134 29.2004 134L23.9504 132.95V110.15L23.0504 95C22.9504 91.9 22.9004 89.05 22.9004 86.45C22.8004 84.15 22.7504 82 22.7504 80C22.7504 77.9 22.7504 76.45 22.7504 75.65V40.7L23.3504 22.85C25.2504 22.75 27.2004 22.7 29.2004 22.7C30.9004 22.7 32.7504 22.7 34.7504 22.7C36.7504 22.7 38.7004 22.65 40.6004 22.55C42.4004 22.55 44.2004 22.55 46.0004 22.55C47.9004 22.55 49.6004 22.55 51.1004 22.55C52.7004 22.55 54.1004 22.6 55.3004 22.7C56.5004 22.7 57.3504 22.75 57.8504 22.85C58.6504 23.05 59.8004 23.25 61.3004 23.45C62.9004 23.65 64.4004 23.85 65.8004 24.05C67.5004 24.35 69.2504 24.65 71.0504 24.95L76.3004 29.3L79.1504 49.7ZM58.9004 69.05C59.0004 68.45 59.0504 67.7 59.0504 66.8C59.1504 65.8 59.2504 64.85 59.3504 63.95C59.4504 62.95 59.5004 62.05 59.5004 61.25C59.6004 60.45 59.6504 59.9 59.6504 59.6C59.6504 59.2 59.5504 58.6 59.3504 57.8C59.2504 57 59.1004 56.2 58.9004 55.4C58.7004 54.5 58.5004 53.7 58.3004 53C58.2004 52.2 58.1004 51.65 58.0004 51.35L54.5504 47.3L47.6504 46.1H37.3004L36.4004 48.65L35.8004 59.45L37.0004 71.45H43.0004H56.6504L58.9004 69.05ZM125.81 1.39999L121.01 9.04999L115.01 19.4L113.21 19.85L103.46 19.4L107.06 5.9L108.86 1.55L120.56 0.949996L125.81 1.39999ZM115.76 83.6L115.31 62.75L111.56 48.2L102.26 47.45L100.76 84.35L115.76 83.6ZM114.41 23L134.06 24.35L138.11 78.8L139.61 133.1L135.11 133.4L118.16 134.15H116.36L115.01 100.4L100.91 99.5L97.1598 134L82.4598 134.45L87.2598 78.35L91.6098 46.25L94.7598 23.75L104.81 23H114.41ZM150.608 23.9L163.958 21.8L192.158 23.9L196.058 27.95L199.658 33.95L200.708 59.75L179.708 61.85L178.808 57.95L178.658 39.8L171.608 37.1L165.758 37.85L166.508 106.25L170.708 108.35L190.958 109.4V98.45L172.358 98.6L172.058 96.8V79.4L196.508 77.6L200.708 78.35L200.858 105.5L200.108 132.35L176.108 135.05L159.158 133.4L149.558 127.1L147.458 120.35L145.208 38.6L146.108 27.95L150.608 23.9ZM234.317 51.2L233.117 69.95L234.917 108.05L233.867 133.4L231.767 133.7L210.767 133.25L209.867 126.35L209.567 86.15L210.317 50.6L234.317 51.2ZM233.867 21.65L234.917 27.5V37.55L234.317 42.95L210.317 43.1L209.567 33.35L209.267 22.85L211.217 21.35L233.867 21.65ZM265.535 24.05L281.735 100.1L283.085 92.15L278.735 23.9L295.385 23.6L301.985 25.1L298.985 133.1L285.635 134.9L272.285 134.15L263.435 68.3L260.285 58.55L260.735 133.85L245.285 135.2L244.535 70.85L246.335 23.45L265.535 24.05ZM340.174 83.6L339.724 62.75L335.974 48.2L326.674 47.45L325.174 84.35L340.174 83.6ZM338.824 23L358.474 24.35L362.524 78.8L364.024 133.1L359.524 133.4L342.574 134.15H340.774L339.424 100.4L325.324 99.5L321.574 134L306.874 134.45L311.674 78.35L316.024 46.25L319.174 23.75L329.224 23H338.824ZM428.132 24.05L444.332 100.1L445.682 92.15L441.332 23.9L457.982 23.6L464.582 25.1L461.582 133.1L448.232 134.9L434.882 134.15L426.032 68.3L422.882 58.55L423.332 133.85L407.882 135.2L407.132 70.85L408.932 23.45L428.132 24.05ZM504.529 83.6L504.079 62.75L500.329 48.2L491.029 47.45L489.529 84.35L504.529 83.6ZM503.179 23L522.829 24.35L526.879 78.8L528.379 133.1L523.879 133.4L506.929 134.15H505.129L503.779 100.4L489.679 99.5L485.929 134L471.229 134.45L476.029 78.35L480.379 46.25L483.529 23.75L493.579 23H503.179ZM484.729 17.6L484.129 14.15L484.729 7.25L490.729 4.24999L493.429 3.65L497.029 5.29999L506.929 9.79999L515.029 7.1H515.929L516.379 15.5L515.929 17.6L508.879 20.6L496.129 15.65L493.429 14.6L484.729 17.6ZM592.627 119.3L590.977 130.1L586.177 134L570.877 135.65L542.827 132.95L538.777 128.9L535.927 122.75L536.527 96.95C536.527 85.65 536.677 75.5 536.977 66.5C536.977 62.7 536.977 58.95 536.977 55.25C536.977 51.55 536.977 48.25 536.977 45.35C536.977 42.45 537.027 40.1 537.127 38.3C537.327 36.4 537.427 35.35 537.427 35.15C537.427 34.85 537.627 34.15 538.027 33.05C538.527 31.95 539.177 30.8 539.977 29.6L541.927 24.8L565.627 22.55L582.577 24.65L590.977 27.95L593.227 38L592.627 119.3ZM571.627 111.5L573.427 55.4L569.827 53.3L555.427 53L554.077 58.1L554.377 79.25V112.85L556.777 113.3L566.077 113.75L571.627 111.5ZM8.73125 173.3L44.5813 173.15L51.3313 173.6L51.7813 188.15L51.3313 201.5L36.3313 201.05L22.3813 200.45L22.8313 208.7L22.3813 216.65L47.4313 216.05L47.2813 225.65L46.2313 228.65L23.4313 229.85L21.6313 230.3L21.7813 255.95V262.25L38.1313 263H49.8313L49.5313 284.6L31.0813 283.85L2.43125 284.6L0.48125 261.05L2.28125 219.95L0.63125 182.9L1.38125 173.15L8.73125 173.3ZM78.4742 174.05L94.6742 250.1L96.0242 242.15L91.6742 173.9L108.324 173.6L114.924 175.1L111.924 283.1L98.5742 284.9L85.2242 284.15L76.3742 218.3L73.2242 208.55L73.6742 283.85L58.2242 285.2L57.4742 220.85L59.2742 173.45L78.4742 174.05ZM166.121 228.5V198.2L147.971 198.5C147.971 200.4 147.771 202.9 147.371 206C146.971 209 146.721 212 146.621 215C146.621 218.5 146.471 222.2 146.171 226.1C145.871 230.8 145.571 235.15 145.271 239.15C145.271 242.55 145.271 245.75 145.271 248.75C145.271 251.75 145.271 253.65 145.271 254.45L146.771 263.15L161.471 264.05L164.621 261.8L165.521 244.4L168.221 244.7L177.671 244.4L178.721 249.8L178.271 272.3V279.8L168.971 283.7L166.121 284.15L163.571 284.45L140.921 283.55L128.021 278.75L123.221 254.9L125.021 232.4L126.371 207.8V188.3L131.921 177.8L137.021 173.45L154.421 173.9H169.571L178.721 177.95L179.321 227.75C178.621 227.85 177.671 227.95 176.471 228.05C175.371 228.05 174.121 228.1 172.721 228.2C171.421 228.3 170.121 228.4 168.821 228.5C167.521 228.5 166.621 228.5 166.121 228.5ZM243.409 269.3L241.759 280.1L236.959 284L221.659 285.65L193.609 282.95L189.559 278.9L186.709 272.75L187.309 246.95C187.309 235.65 187.459 225.5 187.759 216.5C187.759 212.7 187.759 208.95 187.759 205.25C187.759 201.55 187.759 198.25 187.759 195.35C187.759 192.45 187.809 190.1 187.909 188.3C188.109 186.4 188.209 185.35 188.209 185.15C188.209 184.85 188.409 184.15 188.809 183.05C189.309 181.95 189.959 180.8 190.759 179.6L192.709 174.8L216.409 172.55L233.359 174.65L241.759 177.95L244.009 188L243.409 269.3ZM222.409 261.5L224.209 205.4L220.609 203.3L206.209 203L204.859 208.1L205.159 229.25V262.85L207.559 263.3L216.859 263.75L222.409 261.5ZM274.47 174.05L290.67 250.1L292.02 242.15L287.67 173.9L304.32 173.6L310.92 175.1L307.92 283.1L294.57 284.9L281.22 284.15L272.37 218.3L269.22 208.55L269.67 283.85L254.22 285.2L253.47 220.85L255.27 173.45L274.47 174.05ZM348.017 173.3L363.917 173.9L368.417 174.2L366.767 195.95L354.767 195.2L355.667 284L329.117 284.3L330.467 231.5L331.067 194.9L316.517 193.55L317.567 174.2L348.017 173.3ZM389.369 203.6V219.05H394.769L400.019 218.6L403.469 215.3V213.8L404.069 203.6L402.869 194.45V194.15L401.219 188.15L397.169 186.35H389.369L388.919 191.75L389.369 203.6ZM407.669 173.6L416.969 174.65L424.619 179L430.619 188.9L428.669 217.85L426.269 222.35L417.419 225.2L427.469 232.7L430.169 240.05V252.05L428.819 283.85L424.919 284.75L409.469 284L408.719 254.75L407.669 239.3L404.069 235.4L397.169 233.15V244.25V272.15L397.619 283.85L383.069 283.7L376.169 284.15L373.769 283.7V262.1V246.35L374.669 225.95L374.069 190.85L373.769 173.45L388.019 173.3L407.669 173.6ZM468.641 233.6L468.191 212.75L464.441 198.2L455.141 197.45L453.641 234.35L468.641 233.6ZM467.291 173L486.941 174.35L490.991 228.8L492.491 283.1L487.991 283.4L471.041 284.15H469.241L467.891 250.4L453.791 249.5L450.041 284L435.341 284.45L440.141 228.35L444.491 196.25L447.641 173.75L457.691 173H467.291ZM512.939 194L511.289 263L525.689 263.3L527.789 261.05L531.389 225.2V207.95L528.689 195.65L512.939 194ZM505.289 174.2C509.789 174.1 513.789 174 517.289 173.9C520.589 173.8 523.689 173.75 526.589 173.75C529.489 173.75 531.639 173.85 533.039 174.05C533.939 174.25 535.189 174.6 536.789 175.1C538.489 175.6 540.189 176.1 541.889 176.6C543.689 177.2 545.489 177.9 547.289 178.7L555.539 191.9C556.139 201.3 556.539 210.2 556.739 218.6C556.739 222.2 556.739 225.85 556.739 229.55C556.739 233.15 556.739 236.6 556.739 239.9C556.739 243.2 556.589 246.2 556.289 248.9C556.089 251.6 555.839 253.75 555.539 255.35C555.139 257.65 554.739 259.8 554.339 261.8C553.939 263.7 553.689 265.35 553.589 266.75C553.189 268.45 552.989 270 552.989 271.4L545.039 283.25L527.039 284.3H499.889L500.639 174.2H505.289ZM594.91 233.6L594.46 212.75L590.71 198.2L581.41 197.45L579.91 234.35L594.91 233.6ZM593.56 173L613.21 174.35L617.26 228.8L618.76 283.1L614.26 283.4L597.31 284.15H595.51L594.16 250.4L580.06 249.5L576.31 284L561.61 284.45L566.41 228.35L570.76 196.25L573.91 173.75L583.96 173H593.56ZM627.358 174.05L649.408 173L650.908 178.4L651.208 219.05L647.308 256.7L628.558 256.1L627.808 235.4L626.158 196.85L627.358 174.05ZM627.358 284.75L626.308 279.2V269.6L626.608 264.65L649.408 264.2L651.208 273.5L650.908 283.55L649.408 284.9L627.358 284.75Z" fill="#F5A42E"/>
</svg>
