<svg width="27" height="26" viewBox="0 0 27 26" fill="none" xmlns="http://www.w3.org/2000/svg">
<path d="M26.1876 24.0204L19.1076 16.9404C20.8089 14.8979 21.6574 12.2781 21.4763 9.62594C21.2953 6.97381 20.0988 4.49358 18.1356 2.7012C16.1725 0.908814 13.5939 -0.0577176 10.9363 0.00266829C8.27868 0.0630542 5.74666 1.14571 3.86696 3.02541C1.98726 4.90511 0.904607 7.43713 0.844221 10.0947C0.783835 12.7523 1.75037 15.3309 3.54275 17.2941C5.33513 19.2572 7.81536 20.4537 10.4675 20.6348C13.1196 20.8158 15.7394 19.9674 17.782 18.266L24.862 25.346L26.1876 24.0204ZM2.75008 10.346C2.75008 8.67725 3.24493 7.04594 4.17205 5.6584C5.09918 4.27086 6.41694 3.18941 7.95869 2.55079C9.50044 1.91218 11.1969 1.74509 12.8337 2.07065C14.4704 2.39621 15.9738 3.19981 17.1538 4.37981C18.3338 5.55982 19.1374 7.06324 19.463 8.69995C19.7885 10.3367 19.6214 12.0332 18.9828 13.5749C18.3442 15.1167 17.2627 16.4344 15.8752 17.3616C14.4877 18.2887 12.8564 18.7835 11.1876 18.7835C8.95058 18.781 6.80591 17.8913 5.22411 16.3095C3.6423 14.7277 2.75256 12.583 2.75008 10.346Z" fill="#F5A42E"/>
</svg>
