<svg width="35" height="40" viewBox="0 0 35 40" fill="none" xmlns="http://www.w3.org/2000/svg">
<g id="fa6-solid:tree" clip-path="url(#clip0_1533_3119)">
<path id="Vector" d="M17.1931 1.13352L17.1932 1.13354L17.1984 1.12773C17.2663 1.05186 17.3738 1 17.5 1C17.6262 1 17.7337 1.05186 17.8016 1.12773L17.8016 1.12775L17.8069 1.13352L29.4162 13.907L29.4162 13.907L29.4235 13.9148C29.549 14.05 29.625 14.2413 29.625 14.4453C29.625 14.8902 29.263 15.25 28.8203 15.25H26.875H24.4608L26.1679 16.9571L31.9023 22.6915C32.0417 22.8309 32.125 23.0292 32.125 23.2344C32.125 23.6587 31.7837 24 31.3594 24H28.75H26.6147L27.9818 25.6403L33.8099 32.6324C33.8099 32.6324 33.81 32.6324 33.81 32.6325C33.9316 32.7785 34 32.9653 34 33.1641C34 33.6274 33.6274 34 33.1641 34H20H19V35V37.5C19 38.3305 18.3305 39 17.5 39C16.6695 39 16 38.3305 16 37.5V35V34H15H1.83594C1.3726 34 1 33.6274 1 33.1641C1 32.9653 1.06835 32.7785 1.19003 32.6325C1.19005 32.6324 1.19007 32.6324 1.1901 32.6324L7.01815 25.6403L8.38535 24H6.25H3.64062C3.21635 24 2.875 23.6587 2.875 23.2344C2.875 23.0292 2.95833 22.8309 3.09773 22.6915L8.83211 16.9571L10.5392 15.25H8.125H6.17969C5.73197 15.25 5.375 14.893 5.375 14.4453C5.375 14.2413 5.45099 14.05 5.57654 13.9148L5.57658 13.9149L5.58377 13.907L17.1931 1.13352Z" stroke="black" stroke-width="2"/>
</g>
<defs>
<clipPath id="clip0_1533_3119">
<rect width="35" height="40" fill="white"/>
</clipPath>
</defs>
</svg>
