<svg width="45" height="37" viewBox="0 0 45 37" fill="none" xmlns="http://www.w3.org/2000/svg">
<path d="M44.7275 4.75C43.0912 5.49375 41.3275 5.9825 39.5 6.21625C41.37 5.09 42.815 3.305 43.495 1.15875C41.7312 2.22125 39.7762 2.965 37.715 3.39C36.0362 1.5625 33.6775 0.5 31 0.5C26.0062 0.5 21.9262 4.58 21.9262 9.61625C21.9262 10.3387 22.0112 11.04 22.16 11.6987C14.595 11.3162 7.85871 7.6825 3.37496 2.17875C2.58871 3.5175 2.14246 5.09 2.14246 6.7475C2.14246 9.91375 3.73621 12.7187 6.20121 14.3125C4.69246 14.3125 3.28996 13.8875 2.05746 13.25V13.3137C2.05746 17.7337 5.20246 21.4312 9.36746 22.26C8.03026 22.6259 6.62641 22.6769 5.26621 22.4087C5.84338 24.2203 6.97373 25.8054 8.49837 26.9412C10.023 28.0771 11.8653 28.7066 13.7662 28.7412C10.5439 31.2922 6.5497 32.671 2.43996 32.6512C1.71746 32.6512 0.994961 32.6087 0.272461 32.5237C4.30996 35.1162 9.11246 36.625 14.255 36.625C31 36.625 40.2012 22.7275 40.2012 10.6787C40.2012 10.275 40.2012 9.8925 40.18 9.48875C41.965 8.21375 43.495 6.59875 44.7275 4.75Z" fill="#1F190A" fill-opacity="0.5"/>
</svg>
